<svg width="21" height="33" viewBox="0 0 21 33" fill="none" xmlns="http://www.w3.org/2000/svg">
<g clip-path="url(#clip0_60_10)">
<path d="M6.1838 14.5216V20.1615C6.1838 20.6998 6.59508 21.1369 7.103 21.1369C7.44236 21.1369 7.75475 21.3358 7.91432 21.6538L12.8733 31.5481C13.0328 31.8661 13.3452 32.065 13.6846 32.065H19.6167C20.328 32.065 20.7696 31.2447 20.4089 30.5941L14.9218 20.7268C13.9588 18.9951 12.6676 17.504 11.1349 16.3533L7.63339 13.7238C7.02434 13.2664 6.18268 13.7283 6.18268 14.5194L6.1838 14.5216Z" fill="#F3F2EC"/>
<path d="M0 1.87441V31.1224C0 32.5563 1.92043 33.035 2.58791 31.7663C4.22179 28.6615 5.95568 22.9182 5.56351 12.7475C5.53541 12.0092 4.92861 11.4204 4.19033 11.4204H4.15999C3.40148 11.4204 2.78681 10.8057 2.78681 10.0472V1.87329C2.78681 1.09568 2.1418 0.473143 1.36419 0.500112C1.3507 0.500112 1.33722 0.500112 1.32373 0.501236C0.585455 0.527081 0 1.13501 0 1.87441Z" fill="#F3F2EC"/>
<path d="M4.33079 1.27222H16.3309C16.6265 1.27222 16.9108 1.3711 17.14 1.55764C18.5098 2.67574 22.8597 6.98855 17.2411 12.9982C16.9939 13.2622 16.6512 13.4184 16.2894 13.4184H7.04568C6.3355 13.4184 5.75903 12.8431 5.75903 12.1318C5.75903 11.4216 5.18369 10.8451 4.47238 10.8451H4.32967C3.61948 10.8451 3.04301 10.2698 3.04301 9.55848V2.55887C3.04301 1.84868 3.61836 1.27222 4.32967 1.27222H4.33079Z" fill="#F3F2EC"/>
<path d="M5.78039 5.03538H8.09074C8.51776 5.03538 8.86498 4.68928 8.86498 4.26114V3.951C8.86498 3.52399 9.21109 3.17676 9.63922 3.17676H13.9262C14.3532 3.17676 14.7004 3.52286 14.7004 3.951V4.40385C14.7004 4.83086 14.3543 5.17809 13.9262 5.17809H12.4024C12.1193 5.17809 11.89 5.40733 11.89 5.69051C11.89 5.97368 12.1193 6.20292 12.4024 6.20292H14.0453C14.4723 6.20292 14.8195 6.54902 14.8195 6.97716V7.21539C14.8195 7.6424 14.4734 7.98962 14.0453 7.98962H12.6159C12.1889 7.98962 11.8417 8.33573 11.8417 8.76386V8.78746C11.8417 9.21447 12.1878 9.5617 12.6159 9.5617H14.0453C14.4723 9.5617 14.8195 9.9078 14.8195 10.3359C14.8195 10.763 14.4734 11.1102 14.0453 11.1102H10.0202C9.59315 11.1102 9.24592 10.7641 9.24592 10.3359V8.43012C9.24592 8.00311 8.89982 7.65588 8.47168 7.65588H5.78039C5.35338 7.65588 5.00615 7.30978 5.00615 6.88164V5.80962C5.00615 5.38261 5.35225 5.03538 5.78039 5.03538Z" fill="#B6231D" stroke="#F3F2EC" stroke-width="0.25" stroke-miterlimit="10"/>
</g>
<defs>
<clipPath id="clip0_60_10">
<rect width="20.5381" height="32" fill="white" transform="translate(0 0.5)"/>
</clipPath>
</defs>
</svg>
