<svg width="21" height="32" viewBox="0 0 21 32" fill="none" xmlns="http://www.w3.org/2000/svg">
<g clip-path="url(#clip0_215_2)">
<path d="M6.18374 14.0216V19.6615C6.18374 20.1998 6.59502 20.6369 7.10294 20.6369C7.4423 20.6369 7.75469 20.8358 7.91426 21.1538L12.8732 31.0481C13.0328 31.3661 13.3452 31.565 13.6845 31.565H19.6166C20.3279 31.565 20.7695 30.7447 20.4088 30.0941L14.9217 20.2268C13.9587 18.4951 12.6676 17.004 11.1348 15.8533L7.63333 13.2238C7.02428 12.7664 6.18262 13.2283 6.18262 14.0194L6.18374 14.0216Z" fill="#B6231D"/>
<path d="M0 1.37441V30.6224C0 32.0563 1.92043 32.535 2.58791 31.2663C4.22179 28.1615 5.95568 22.4182 5.56351 12.2475C5.53541 11.5092 4.92861 10.9204 4.19033 10.9204H4.15999C3.40148 10.9204 2.78681 10.3057 2.78681 9.54719V1.37329C2.78681 0.59568 2.1418 -0.0268572 1.36419 0.000111925C1.3507 0.000111925 1.33722 0.000111925 1.32373 0.00123564C0.585455 0.0270811 0 0.63501 0 1.37441Z" fill="#B6231D"/>
<path d="M4.33075 0.772217H16.3309C16.6264 0.772217 16.9107 0.871104 17.14 1.05764C18.5098 2.17574 22.8597 6.48855 17.2411 12.4982C16.9939 12.7622 16.6511 12.9184 16.2893 12.9184H7.04564C6.33545 12.9184 5.75899 12.3431 5.75899 11.6318C5.75899 10.9216 5.18364 10.3451 4.47233 10.3451H4.32962C3.61943 10.3451 3.04297 9.76979 3.04297 9.05848V2.05887C3.04297 1.34868 3.61831 0.772217 4.32962 0.772217H4.33075Z" fill="#B6231D"/>
<path d="M5.78034 4.53538H8.0907C8.51771 4.53538 8.86494 4.18928 8.86494 3.76114V3.451C8.86494 3.02399 9.21104 2.67676 9.63918 2.67676H13.9261C14.3532 2.67676 14.7004 3.02286 14.7004 3.451V3.90385C14.7004 4.33086 14.3543 4.67809 13.9261 4.67809H12.4024C12.1192 4.67809 11.89 4.90733 11.89 5.19051C11.89 5.47368 12.1192 5.70292 12.4024 5.70292H14.0453C14.4723 5.70292 14.8195 6.04902 14.8195 6.47716V6.71539C14.8195 7.1424 14.4734 7.48962 14.0453 7.48962H12.6159C12.1889 7.48962 11.8417 7.83573 11.8417 8.26386V8.28746C11.8417 8.71447 12.1878 9.0617 12.6159 9.0617H14.0453C14.4723 9.0617 14.8195 9.4078 14.8195 9.83594C14.8195 10.263 14.4734 10.6102 14.0453 10.6102H10.0201C9.5931 10.6102 9.24588 10.2641 9.24588 9.83594V7.93012C9.24588 7.50311 8.89977 7.15588 8.47164 7.15588H5.78034C5.35333 7.15588 5.0061 6.80978 5.0061 6.38164V5.30962C5.0061 4.88261 5.35221 4.53538 5.78034 4.53538Z" fill="#F3F2EC" stroke="#B6231D" stroke-width="0.25" stroke-miterlimit="10"/>
</g>
<defs>
<clipPath id="clip0_215_2">
<rect width="20.5381" height="32" fill="white"/>
</clipPath>
</defs>
</svg>
